<?xml version="1.0" encoding="UTF-8"?>
<!DOCTYPE svg PUBLIC "-//W3C//DTD SVG 1.1//EN" "http://www.w3.org/Graphics/SVG/1.1/DTD/svg11.dtd">
<!-- Creator: CorelDRAW 2020 (64-Bit) -->
<svg xmlns="http://www.w3.org/2000/svg" xml:space="preserve" width="56.2161mm" height="5.312mm" version="1.1" style="shape-rendering:geometricPrecision; text-rendering:geometricPrecision; image-rendering:optimizeQuality; fill-rule:evenodd; clip-rule:evenodd"
viewBox="0 0 662.25 62.58"
 xmlns:xlink="http://www.w3.org/1999/xlink"
 xmlns:xodm="http://www.corel.com/coreldraw/odm/2003">
 <defs>
  <style type="text/css">
   <![CDATA[
    .fil0 {fill:#45453A}
   ]]>
  </style>
 </defs>
 <g id="Слой_x0020_1">
  <metadata id="CorelCorpID_0Corel-Layer"/>
  <path class="fil0" d="M620.57 1.29l11.47 0 0 49.37 30.21 0 0 10.63 -41.68 0 0 -60zm-29.11 60l-11.47 0 0 -60 11.47 0 0 60zm-84.07 -44.4c-3.65,3.83 -5.48,8.63 -5.48,14.4 0,5.78 1.83,10.58 5.48,14.4 3.65,3.83 8.24,5.75 13.78,5.75 5.53,0 10.13,-1.92 13.78,-5.75 3.71,-3.88 5.56,-8.68 5.56,-14.4 0,-5.71 -1.86,-10.51 -5.56,-14.4 -3.71,-3.89 -8.31,-5.83 -13.78,-5.83 -5.48,0 -10.07,1.94 -13.78,5.83zm13.78 -16.89c9.02,0 16.46,3 22.34,9 6,5.89 8.99,13.31 8.99,22.28 0,8.92 -3,16.37 -8.99,22.38 -5.93,5.94 -13.37,8.92 -22.34,8.92 -8.84,0 -16.29,-2.97 -22.34,-8.92 -5.93,-6.06 -8.9,-13.51 -8.9,-22.38 0,-8.91 2.97,-16.34 8.9,-22.28 5.99,-6 13.44,-9 22.34,-9zm-135.17 61.29l-11.47 0 0 -60 11.47 0 21.48 37.88 21.4 -37.88 11.47 0 0 60 -11.47 0 0 -38.23 -17.63 31.46 -7.62 0 -17.63 -31.37 0 38.14zm-51.28 -24.09l0 -35.91 11.47 0 0 35.91c0,7.2 -2.52,13.23 -7.53,18.09 -4.91,4.86 -11.13,7.29 -18.66,7.29 -7.41,0 -13.63,-2.43 -18.66,-7.29 -4.97,-4.92 -7.45,-10.95 -7.45,-18.09l0 -35.91 11.47 0 0 35.91c0,4.23 1.4,7.74 4.2,10.54 2.79,2.8 6.27,4.2 10.44,4.2 4.23,0 7.74,-1.4 10.53,-4.2 2.8,-2.8 4.2,-6.31 4.2,-10.54zm-109.15 -35.91l44.17 0 0 10.63 -32.7 0 0 13.71 27.99 0 0 10.63 -27.99 0 0 25.03 -11.47 0 0 -60zm-49.23 10.63l-16.26 0 0 17.57 16.26 0c2.51,0 4.59,-0.84 6.25,-2.53 1.65,-1.69 2.48,-3.79 2.48,-6.3 0,-2.52 -0.83,-4.6 -2.48,-6.26 -1.66,-1.66 -3.74,-2.48 -6.25,-2.48zm-27.73 -10.63l27.73 0c5.82,0 10.73,1.85 14.72,5.57 3.99,3.66 5.99,8.26 5.99,13.8 0,3.88 -1.03,7.38 -3.08,10.5 -2.06,3.11 -4.82,5.44 -8.31,6.98l13.7 23.14 -12.76 0 -12.58 -21.17 -13.95 0 0 21.17 -11.47 0 0 -60zm-46.15 38.14l-9.07 -21.78 -9.16 21.78 18.23 0zm-27.39 21.86l-12.07 0 25.68 -60 9.33 0 25.68 60 -12.07 0 -4.71 -11.32 -27.13 0 -4.71 11.32zm-48.2 -49.37l-15.41 0 0 17.57 15.41 0c2.51,0 4.6,-0.84 6.25,-2.53 1.66,-1.69 2.48,-3.79 2.48,-6.3 0,-2.52 -0.83,-4.6 -2.48,-6.26 -1.65,-1.66 -3.74,-2.48 -6.25,-2.48zm-15.41 28.2l0 21.17 -11.47 0 0 -60 26.88 0c5.82,0 10.73,1.85 14.72,5.57 3.99,3.66 5.99,8.26 5.99,13.8 0,5.6 -2,10.23 -5.99,13.88 -4,3.72 -8.9,5.57 -14.72,5.57l-15.41 0z"/>
 </g>
</svg>
